<svg width="40" height="45" viewBox="0 0 40 45" fill="none" xmlns="http://www.w3.org/2000/svg">
<path d="M38.5885 10.222L21.4106 0.374593C20.9816 0.129185 20.4951 0 19.9999 0C19.5047 0 19.0183 0.129185 18.5892 0.374593L1.41146 10.222C0.981633 10.4684 0.624917 10.8229 0.377114 11.2498C0.12931 11.6768 -0.000816441 12.161 3.85436e-06 12.6538V32.3471C-0.000816441 32.8398 0.12931 33.3241 0.377114 33.751C0.624917 34.1779 0.981633 34.5325 1.41146 34.7789L18.5892 44.6248C19.0181 44.8706 19.5047 45 19.9999 45C20.4952 45 20.9817 44.8706 21.4106 44.6248L38.5885 34.7789C39.0184 34.5325 39.3751 34.1779 39.6229 33.751C39.8707 33.3241 40.0008 32.8398 40 32.3471V12.6492C40 12.1572 39.8695 11.674 39.6218 11.2479C39.374 10.8218 39.0177 10.468 38.5885 10.222V10.222ZM19.9992 43.6596L15.3836 41.015L6.15261 35.7242L2.35442 33.5477C2.10585 33.4053 1.89955 33.2004 1.75605 32.9536C1.61255 32.7068 1.53701 32.4268 1.53703 32.1419V12.8499C1.53701 12.5649 1.61255 12.285 1.75605 12.0382C1.89955 11.7914 2.10585 11.5865 2.35442 11.444L6.15261 9.26593L10.768 6.61984L15.3836 3.97367L19.1818 1.79717C19.4303 1.6547 19.7122 1.57973 19.9992 1.57973C20.2862 1.57973 20.5682 1.6547 20.8167 1.79717L24.6147 3.97367L19.9992 6.61984L15.3836 9.26593L6.15261 14.5567V30.4305L10.768 33.0766L15.3836 35.7228V25.1397L10.768 22.4951V17.2029L15.3836 19.8475L19.9992 22.4936V43.6596ZM38.4615 32.1404C38.4616 32.4254 38.3862 32.7054 38.2426 32.9522C38.0991 33.199 37.8926 33.4039 37.6439 33.5463L33.8459 35.7228L24.6162 41.0134V19.849L20.0007 17.2044L15.3853 14.5583L20.0007 11.9121L24.6162 14.5583L29.2318 17.2029V33.0766L33.8474 30.432V14.5583L29.2318 11.9121L24.6162 9.2675L29.2318 6.62133L33.8474 9.2675L37.6454 11.4455C37.8941 11.5878 38.1006 11.7927 38.2441 12.0396C38.3877 12.2864 38.4631 12.5664 38.463 12.8514L38.4615 32.1404Z" fill="#7380AD"/>
</svg>
